<?xml version="1.0" encoding="UTF-8" ?>
<!DOCTYPE svg PUBLIC "-//W3C//DTD SVG 1.1//EN" "http://www.w3.org/Graphics/SVG/1.1/DTD/svg11.dtd">
<svg width="1080pt" height="562pt" viewBox="0 0 1080 562" version="1.1" xmlns="http://www.w3.org/2000/svg">
<g id="#f99800ff">
<path fill="#f99800" opacity="1.00" d=" M 518.51 137.74 C 520.66 137.33 522.85 137.16 525.05 137.14 C 680.37 137.16 835.69 137.16 991.01 137.14 C 997.24 137.10 1003.49 138.82 1008.66 142.35 C 1016.81 147.68 1021.76 157.30 1021.84 166.99 C 1021.86 236.00 1021.85 305.01 1021.85 374.03 C 1021.90 380.58 1022.23 387.43 1019.43 393.55 C 1015.72 402.69 1007.11 409.51 997.44 411.28 C 993.67 412.01 989.82 411.85 986.01 411.85 C 832.00 411.83 677.98 411.87 523.97 411.84 C 513.60 411.75 503.37 406.03 498.28 396.93 C 495.44 392.15 494.12 386.57 494.14 381.04 C 494.17 309.70 494.13 238.35 494.16 167.01 C 494.05 153.09 504.75 140.09 518.51 137.74 M 549.92 182.69 C 549.92 243.81 549.91 304.92 549.92 366.04 C 563.05 366.04 576.18 366.04 589.31 366.04 C 589.33 342.99 589.29 319.95 589.33 296.90 C 589.38 287.04 593.17 276.28 601.98 270.99 C 610.56 266.01 622.68 267.13 629.61 274.47 C 635.39 280.40 637.82 288.88 637.82 297.01 C 637.84 320.02 637.82 343.03 637.83 366.04 C 649.66 366.04 661.48 366.04 673.31 366.04 C 673.30 343.04 673.34 320.03 673.29 297.03 C 673.27 282.67 670.11 267.94 662.20 255.78 C 656.29 246.58 647.20 239.52 636.86 235.98 C 621.30 230.73 603.30 232.17 589.35 241.08 C 589.27 221.62 589.33 202.15 589.32 182.68 C 576.18 182.69 563.05 182.68 549.92 182.69 M 820.46 202.58 C 819.93 210.53 820.16 218.51 820.34 226.46 C 823.38 227.85 826.75 227.41 830.00 227.45 C 845.33 227.42 860.66 227.46 875.99 227.43 C 878.01 227.63 880.84 226.52 880.50 224.06 C 880.60 217.67 880.60 211.28 880.49 204.90 C 880.69 202.62 877.93 201.70 876.10 201.79 C 859.41 201.73 842.72 201.82 826.04 201.75 C 824.13 201.67 822.28 202.13 820.46 202.58 M 690.52 235.00 C 690.52 258.02 690.52 281.04 690.52 304.06 C 689.68 322.68 693.43 343.19 707.47 356.55 C 717.06 365.83 730.77 369.98 743.94 369.26 C 753.78 369.11 763.18 364.83 770.52 358.40 C 770.51 360.94 770.51 363.49 770.53 366.04 C 783.68 366.04 796.84 366.04 810.00 366.04 C 810.00 322.36 810.00 278.68 810.00 235.00 C 796.84 235.00 783.68 235.00 770.52 235.00 C 770.51 260.00 770.53 284.99 770.52 309.99 C 770.50 315.10 768.59 320.27 764.82 323.80 C 759.72 328.91 751.84 330.33 744.96 328.82 C 738.00 327.47 732.02 321.85 730.42 314.92 C 729.75 311.33 729.88 307.67 729.87 304.04 C 729.89 281.03 729.87 258.02 729.88 235.00 C 716.76 235.00 703.64 235.00 690.52 235.00 M 827.62 235.14 C 827.77 260.10 827.36 285.08 827.85 310.04 C 828.52 312.95 828.68 315.96 829.32 318.89 C 834.29 342.25 853.39 361.06 875.82 368.21 C 884.46 371.61 893.85 372.03 903.03 371.87 C 925.96 372.28 948.69 360.67 962.19 342.19 C 969.68 331.72 974.43 318.93 973.83 305.93 C 974.62 291.00 968.59 276.29 959.05 264.99 C 940.37 242.95 908.26 233.26 880.57 241.58 C 880.60 255.83 880.61 270.08 880.57 284.34 C 888.45 276.23 899.71 271.45 911.08 272.34 C 927.57 272.54 943.70 285.28 945.50 302.07 C 946.97 313.59 941.11 325.17 931.81 331.82 C 925.25 336.71 917.10 338.95 909.00 339.14 C 905.98 338.76 902.96 338.54 899.94 338.31 C 895.93 336.64 891.65 335.47 888.04 332.98 C 878.98 327.18 872.48 316.91 872.51 306.00 C 872.53 282.37 872.47 258.74 872.52 235.11 C 857.56 234.92 842.58 235.15 827.62 235.14 M 905.11 279.69 C 905.04 284.93 905.28 290.19 904.91 295.42 C 902.97 296.05 900.83 297.57 898.91 296.09 C 894.94 293.68 890.66 291.85 886.71 289.40 C 885.19 291.49 883.50 293.56 882.97 296.16 C 887.08 298.36 891.22 300.51 895.36 302.65 C 897.37 303.36 897.78 306.19 896.65 307.76 C 892.36 310.64 887.42 312.37 883.13 315.22 C 883.38 317.80 885.26 319.75 886.74 321.74 C 891.90 319.59 896.38 315.53 901.91 314.48 C 902.86 315.00 903.82 315.51 904.80 316.01 C 905.42 321.18 905.00 326.40 905.14 331.60 C 907.77 331.58 910.41 331.59 913.06 331.62 C 913.18 326.39 913.04 321.17 913.19 315.94 C 914.76 315.50 916.36 313.87 918.04 314.76 C 922.79 316.63 926.85 320.03 931.75 321.49 C 933.15 319.61 934.31 317.58 935.61 315.62 C 931.10 312.64 926.13 310.41 921.35 307.92 C 921.24 306.52 921.15 305.12 921.07 303.73 C 925.83 300.97 930.78 298.55 935.64 295.96 C 934.38 293.67 932.97 291.46 931.46 289.33 C 927.30 291.97 922.80 294.03 918.47 296.37 C 916.67 297.49 914.86 295.90 913.16 295.40 C 913.07 290.16 913.10 284.92 913.11 279.69 C 910.43 279.70 907.77 279.70 905.11 279.69 Z" />
</g>
<g id="#000000ff">
<path fill="#000000" opacity="1.00" d=" M 98.73 212.58 C 113.68 190.06 141.32 177.95 167.95 179.00 C 193.22 177.90 218.77 188.99 234.77 208.68 C 226.43 215.87 217.64 222.52 209.38 229.78 C 201.24 220.65 190.32 213.67 178.04 211.98 C 160.70 208.80 141.28 213.90 129.21 227.16 C 121.74 235.26 117.83 246.14 116.99 257.02 C 116.92 268.34 117.02 279.67 116.95 291.00 C 117.18 303.08 121.48 315.31 129.96 324.08 C 139.86 334.62 154.65 339.84 168.96 339.17 C 184.23 339.70 199.37 332.57 208.98 320.74 C 217.74 327.44 226.01 334.76 234.67 341.59 C 220.50 359.99 197.53 370.39 174.59 371.57 C 169.25 371.28 163.91 371.00 158.56 371.11 C 140.04 370.09 121.85 362.35 108.40 349.54 C 94.64 335.97 86.31 317.20 84.98 297.98 C 83.96 286.67 84.64 275.31 84.42 263.98 C 84.26 245.98 88.24 227.49 98.73 212.58 Z" />
<path fill="#000000" opacity="1.00" d=" M 549.92 182.69 C 563.05 182.68 576.18 182.69 589.32 182.68 C 589.33 202.15 589.27 221.62 589.35 241.08 C 603.30 232.17 621.30 230.73 636.86 235.98 C 647.20 239.52 656.29 246.58 662.20 255.78 C 670.11 267.94 673.27 282.67 673.29 297.03 C 673.34 320.03 673.30 343.04 673.31 366.04 C 661.48 366.04 649.66 366.04 637.83 366.04 C 637.82 343.03 637.84 320.02 637.82 297.01 C 637.82 288.88 635.39 280.40 629.61 274.47 C 622.68 267.13 610.56 266.01 601.98 270.99 C 593.17 276.28 589.38 287.04 589.33 296.90 C 589.29 319.95 589.33 342.99 589.31 366.04 C 576.18 366.04 563.05 366.04 549.92 366.04 C 549.91 304.92 549.92 243.81 549.92 182.69 Z" />
<path fill="#000000" opacity="1.00" d=" M 820.46 202.58 C 822.28 202.13 824.13 201.67 826.04 201.75 C 842.72 201.82 859.41 201.73 876.10 201.79 C 877.93 201.70 880.69 202.62 880.49 204.90 C 880.60 211.28 880.60 217.67 880.50 224.06 C 880.84 226.52 878.01 227.63 875.99 227.43 C 860.66 227.46 845.33 227.42 830.00 227.45 C 826.75 227.41 823.38 227.85 820.34 226.46 C 820.16 218.51 819.93 210.53 820.46 202.58 Z" />
<path fill="#000000" opacity="1.00" d=" M 300.37 233.45 C 314.44 231.42 329.24 232.83 342.26 238.74 C 353.81 243.93 363.21 254.22 366.22 266.64 C 367.97 274.63 367.51 282.87 367.56 290.99 C 367.59 316.69 367.51 342.40 367.60 368.10 C 357.43 368.38 347.22 368.43 337.05 368.07 C 337.08 364.24 337.07 360.42 337.08 356.61 C 326.80 366.00 312.91 371.25 298.99 370.99 C 285.58 370.97 271.29 368.00 261.05 358.78 C 245.67 345.49 244.89 318.79 259.83 304.86 C 270.48 295.08 285.03 291.21 298.99 289.08 C 303.19 288.47 307.40 287.80 311.67 287.93 C 320.33 287.95 329.01 288.34 337.65 287.56 C 338.09 283.46 338.09 279.28 337.10 275.25 C 336.18 268.97 330.82 264.51 325.04 262.67 C 309.79 257.69 291.85 262.42 281.27 274.58 C 274.94 268.25 268.78 261.74 262.71 255.16 C 260.95 254.01 262.91 252.62 263.80 251.72 C 274.04 242.50 286.81 235.98 300.37 233.45 M 292.21 312.93 C 287.21 314.85 281.26 317.09 279.15 322.50 C 277.88 327.46 278.39 333.19 281.74 337.26 C 285.13 341.28 290.17 343.48 295.18 344.71 C 304.17 346.11 314.09 345.34 321.53 339.59 C 330.72 332.51 335.37 320.83 336.45 309.53 C 321.70 310.02 306.53 308.51 292.21 312.93 Z" />
<path fill="#000000" opacity="1.00" d=" M 690.52 235.00 C 703.64 235.00 716.76 235.00 729.88 235.00 C 729.87 258.02 729.89 281.03 729.87 304.04 C 729.88 307.67 729.75 311.33 730.42 314.92 C 732.02 321.85 738.00 327.47 744.96 328.82 C 751.84 330.33 759.72 328.91 764.82 323.80 C 768.59 320.27 770.50 315.10 770.52 309.99 C 770.53 284.99 770.51 260.00 770.52 235.00 C 783.68 235.00 796.84 235.00 810.00 235.00 C 810.00 278.68 810.00 322.36 810.00 366.04 C 796.84 366.04 783.68 366.04 770.53 366.04 C 770.51 363.49 770.51 360.94 770.52 358.40 C 763.18 364.83 753.78 369.11 743.94 369.26 C 730.77 369.98 717.06 365.83 707.47 356.55 C 693.43 343.19 689.68 322.68 690.52 304.06 C 690.52 281.04 690.52 258.02 690.52 235.00 Z" />
<path fill="#000000" opacity="1.00" d=" M 827.62 235.14 C 842.58 235.15 857.56 234.92 872.52 235.11 C 872.47 258.74 872.53 282.37 872.51 306.00 C 872.48 316.91 878.98 327.18 888.04 332.98 C 891.65 335.47 895.93 336.64 899.94 338.31 C 902.96 338.54 905.98 338.76 909.00 339.14 C 917.10 338.95 925.25 336.71 931.81 331.82 C 941.11 325.17 946.97 313.59 945.50 302.07 C 943.70 285.28 927.57 272.54 911.08 272.34 C 899.71 271.45 888.45 276.23 880.57 284.34 C 880.61 270.08 880.60 255.83 880.57 241.58 C 908.26 233.26 940.37 242.95 959.05 264.99 C 968.59 276.29 974.62 291.00 973.83 305.93 C 974.43 318.93 969.68 331.72 962.19 342.19 C 948.69 360.67 925.96 372.28 903.03 371.87 C 893.85 372.03 884.46 371.61 875.82 368.21 C 853.39 361.06 834.29 342.25 829.32 318.89 C 828.68 315.96 828.52 312.95 827.85 310.04 C 827.36 285.08 827.77 260.10 827.62 235.14 Z" />
<path fill="#000000" opacity="1.00" d=" M 390.01 236.00 C 400.67 236.00 411.33 236.01 422.00 235.99 C 422.00 240.49 422.00 244.99 421.99 249.50 C 431.30 241.92 442.68 236.69 454.71 235.65 C 457.15 235.57 459.59 235.59 462.04 235.60 C 462.27 244.43 461.73 253.27 462.30 262.08 C 449.33 261.30 435.94 267.80 428.70 278.67 C 423.33 286.31 422.06 295.84 421.98 304.96 C 422.02 326.07 421.99 347.17 421.99 368.28 C 411.33 368.15 400.65 368.55 389.99 368.06 C 390.02 324.04 389.98 280.02 390.01 236.00 Z" />
<path fill="#000000" opacity="1.00" d=" M 905.11 279.69 C 907.77 279.70 910.43 279.70 913.11 279.69 C 913.10 284.92 913.07 290.16 913.16 295.40 C 914.86 295.90 916.67 297.49 918.47 296.37 C 922.80 294.03 927.30 291.97 931.46 289.33 C 932.97 291.46 934.38 293.67 935.64 295.96 C 930.78 298.55 925.83 300.97 921.07 303.73 C 921.15 305.12 921.24 306.52 921.35 307.92 C 926.13 310.41 931.10 312.64 935.61 315.62 C 934.31 317.58 933.15 319.61 931.75 321.49 C 926.85 320.03 922.79 316.63 918.04 314.76 C 916.36 313.87 914.76 315.50 913.19 315.94 C 913.04 321.17 913.18 326.39 913.06 331.62 C 910.41 331.59 907.77 331.58 905.14 331.60 C 905.00 326.40 905.42 321.18 904.80 316.01 C 903.82 315.51 902.86 315.00 901.91 314.48 C 896.38 315.53 891.90 319.59 886.74 321.74 C 885.26 319.75 883.38 317.80 883.13 315.22 C 887.42 312.37 892.36 310.64 896.65 307.76 C 897.78 306.19 897.37 303.36 895.36 302.65 C 891.22 300.51 887.08 298.36 882.97 296.16 C 883.50 293.56 885.19 291.49 886.71 289.40 C 890.66 291.85 894.94 293.68 898.91 296.09 C 900.83 297.57 902.97 296.05 904.91 295.42 C 905.28 290.19 905.04 284.93 905.11 279.69 Z" />
</g>
<g id="#131313e1">
<path fill="#131313" opacity="0.88" d=" M 390.01 235.04 C 400.68 234.95 411.35 235.02 422.02 235.00 L 422.00 235.99 C 411.33 236.01 400.67 236.00 390.01 236.00 L 390.01 235.04 Z" />
</g>
<g id="#101010bb">
<path fill="#101010" opacity="0.73" d=" M 454.71 235.65 C 457.36 234.90 460.13 234.92 462.86 235.07 C 463.11 242.04 462.89 249.02 463.01 256.00 C 462.98 258.03 463.21 260.18 462.30 262.08 C 461.73 253.27 462.27 244.43 462.04 235.60 C 459.59 235.59 457.15 235.57 454.71 235.65 Z" />
</g>
<g id="#101010db">
<path fill="#101010" opacity="0.86" d=" M 337.10 275.25 C 338.09 279.28 338.09 283.46 337.65 287.56 C 329.01 288.34 320.33 287.95 311.67 287.93 C 320.00 286.26 328.56 287.29 337.00 286.99 C 336.99 283.08 336.95 279.16 337.10 275.25 Z" />
</g>
<g id="#111111c3">
<path fill="#111111" opacity="0.76" d=" M 158.56 371.11 C 163.91 371.00 169.25 371.28 174.59 371.57 C 169.29 372.08 163.73 372.64 158.56 371.11 Z" />
</g>
</svg>
